<svg width="91" height="19" viewBox="0 0 91 19" fill="none" xmlns="http://www.w3.org/2000/svg">
<path d="M7.49234 10.8821C3.53012 10.6857 2.48126 9.90011 2.878 7.83792C3.25585 5.87394 5.08256 4.69555 8.68256 4.69555C12.4826 4.69555 13.4936 5.67754 13.1536 7.44513L12.9835 8.32892H9.98354L10.0402 8.03432C10.0969 7.73973 9.71579 7.64153 8.11579 7.64153C6.31579 7.64153 5.8969 7.73973 5.82133 8.13252C5.74576 8.52532 5.92686 8.62352 7.90797 8.72172C11.8702 8.91812 12.919 9.70371 12.5223 11.7659C12.1445 13.7299 10.3178 14.9083 6.71775 14.9083C2.91775 14.9083 1.90667 13.9263 2.24674 12.1587L2.41677 11.2749H5.41677L5.36009 11.5695C5.30342 11.8641 5.68452 11.9623 7.28452 11.9623C9.08452 11.9623 9.50342 11.8641 9.57899 11.4713C9.65455 11.0785 9.47345 10.9803 7.49234 10.8821ZM20.108 7.64153C18.508 7.64153 17.9946 8.23072 17.7301 9.60551L17.6546 9.99831C17.3901 11.3731 17.6767 11.9623 19.2767 11.9623C20.4767 11.9623 21.3901 11.3731 21.6546 9.99831L21.7301 9.60551C21.9946 8.23072 21.308 7.64153 20.108 7.64153ZM19.9099 14.9083C18.0099 14.9083 17.2422 14.2209 17.05 13.1407L15.992 18.6398H12.992L15.637 4.89195H18.437L18.3347 6.46314C18.9425 5.38295 19.9747 4.69555 21.8747 4.69555C24.2747 4.69555 25.4103 6.07034 24.8435 9.01632L24.5412 10.5875C23.9744 13.5335 22.3099 14.9083 19.9099 14.9083ZM30.5021 14.9083C26.8021 14.9083 25.7233 13.2389 26.2712 10.3911L26.4979 9.21271C27.0458 6.36494 28.7669 4.69555 32.4669 4.69555C36.1669 4.69555 37.2458 6.36494 36.6979 9.21271L36.4712 10.3911C35.9233 13.2389 34.2021 14.9083 30.5021 14.9083ZM31.0689 11.9623C32.7689 11.9623 33.2445 11.5695 33.5467 9.99831L33.6223 9.60551C33.9246 8.03432 33.6002 7.64153 31.9002 7.64153C30.2002 7.64153 29.7246 8.03432 29.4223 9.60551L29.3467 9.99831C29.0445 11.5695 29.3689 11.9623 31.0689 11.9623ZM37.3321 14.7119L39.2213 4.89195H42.0213L41.9191 6.46314C42.4269 5.38295 43.1213 4.89195 44.8213 4.89195H46.2213L45.6546 7.83792H43.6546C42.0546 7.83792 41.5979 8.13252 41.3145 9.60551L40.3321 14.7119H37.3321ZM52.5067 11.7659L51.9399 14.7119H48.7399C46.7399 14.7119 45.9288 13.7299 46.3067 11.7659L47.5951 5.06871L48.607 2.92797H51.007L50.6292 4.89195H53.8292L53.2624 7.83792H50.0624L49.4956 10.7839C49.3445 11.5695 49.7067 11.7659 50.3067 11.7659H52.5067ZM53.5477 14.7119L56.1927 0.963982H59.1927L58.1347 6.46314C58.5425 5.38295 59.7747 4.69555 61.6747 4.69555C64.2747 4.69555 65.248 5.87394 64.6435 9.01632L63.5477 14.7119H60.5477L61.5301 9.60551C61.7946 8.23072 61.308 7.64153 59.908 7.64153C58.408 7.64153 57.7757 8.32892 57.5301 9.60551L56.5477 14.7119H53.5477ZM72.6422 13.1407C72.2344 14.2209 71.0021 14.9083 69.1021 14.9083C66.5021 14.9083 65.5288 13.7299 66.1334 10.5875L67.2291 4.89195H70.2291L69.2467 9.99831C68.9823 11.3731 69.4689 11.9623 70.8689 11.9623C72.3689 11.9623 73.0011 11.2749 73.2467 9.99831L74.2291 4.89195H77.2291L75.3399 14.7119H72.5399L72.6422 13.1407ZM83.7923 7.64153C82.1923 7.64153 81.679 8.23072 81.4145 9.60551L81.3389 9.99831C81.0744 11.3731 81.3611 11.9623 82.9611 11.9623C84.1611 11.9623 85.0744 11.3731 85.3389 9.99831L85.4145 9.60551C85.679 8.23072 84.9923 7.64153 83.7923 7.64153ZM77.4321 14.7119L80.077 0.963982H83.077L82.0191 6.46314C82.6269 5.38295 83.6591 4.69555 85.5591 4.69555C87.9591 4.69555 89.0946 6.07034 88.5279 9.01632L88.2256 10.5875C87.6588 13.5335 85.9943 14.9083 83.5943 14.9083C81.6943 14.9083 80.9266 14.2209 80.7344 13.1407L80.2321 14.7119H77.4321Z" fill="white"/>
</svg>
