<svg width="12" height="10" viewBox="0 0 12 10" fill="none" xmlns="http://www.w3.org/2000/svg">
<path d="M3.24434 8.92797C3.4635 7.78886 3.75841 6.98362 5.79222 6.08019C7.47841 6.98362 7.4635 7.78886 7.24434 8.92797L7.05542 9.90996H10.0554L10.2443 8.92797C10.5202 7.49426 10.1673 6.00163 8.69515 4.92144C10.5716 3.90017 11.4799 2.50574 11.7557 1.07203L11.9447 0.0900421H8.94466L8.75574 1.07203C8.53658 2.21114 8.26812 2.8789 6.24186 3.74305C4.54812 2.8789 4.53658 2.21114 4.75574 1.07203L4.94466 0.0900421H1.94466L1.75574 1.07203C1.47991 2.50574 1.85164 3.90017 3.33515 4.92144C1.44734 6.00163 0.520173 7.49426 0.244344 8.92797L0.0554199 9.90996H3.05542L3.24434 8.92797Z" fill="#C0160A"/>
</svg>
